<?xml version="1.0" encoding="UTF-8" ?>
<!DOCTYPE svg PUBLIC "-//W3C//DTD SVG 1.1//EN" "http://www.w3.org/Graphics/SVG/1.1/DTD/svg11.dtd">
<svg width="259pt" height="109pt" viewBox="0 0 259 109" version="1.1" xmlns="http://www.w3.org/2000/svg">
<g id="#fdbb30ff">
<path fill="#fdbb30" opacity="1.00" d=" M 99.35 0.00 L 102.71 0.00 C 103.02 1.41 102.97 2.79 102.58 4.17 C 101.74 4.17 100.07 4.17 99.23 4.17 C 99.26 2.78 99.30 1.39 99.35 0.00 Z" />
<path fill="#fdbb30" opacity="1.00" d=" M 99.44 7.68 C 100.67 7.68 101.89 7.69 103.12 7.70 C 103.12 8.88 103.12 10.07 103.12 11.25 C 101.88 11.31 100.64 11.36 99.40 11.41 C 99.28 10.17 99.18 8.93 99.09 7.69 L 99.44 7.68 Z" />
<path fill="#fdbb30" opacity="1.00" d=" M 88.82 11.40 C 90.04 11.37 91.26 11.32 92.49 11.30 C 92.48 12.10 92.47 13.70 92.47 14.50 C 92.46 14.62 92.45 14.86 92.45 14.98 C 91.58 14.91 89.85 14.75 88.98 14.67 C 88.94 13.86 88.86 12.22 88.82 11.40 Z" />
<path fill="#fdbb30" opacity="1.00" d=" M 36.61 16.29 C 46.38 13.66 56.81 14.69 66.20 18.28 C 68.67 19.48 71.13 20.72 73.45 22.20 C 74.01 22.59 75.12 23.36 75.68 23.75 L 73.99 24.65 C 71.46 26.39 75.84 27.06 76.84 27.74 C 76.81 28.67 76.78 29.60 76.74 30.53 C 75.71 30.51 74.68 30.50 73.65 30.49 C 74.03 28.14 72.08 25.79 69.66 27.22 C 69.71 28.96 69.76 30.71 69.82 32.45 C 68.94 32.42 67.19 32.37 66.32 32.34 C 66.33 33.00 66.36 34.32 66.38 34.98 C 59.19 30.57 50.41 28.42 42.06 30.20 C 34.06 31.71 26.80 36.46 22.07 43.06 C 16.45 50.61 15.01 60.76 17.27 69.78 C 20.38 81.28 30.38 90.58 42.12 92.71 C 52.63 94.89 64.05 91.14 71.43 83.40 C 76.97 77.71 80.04 69.84 80.27 61.94 C 80.41 55.31 78.16 48.82 74.69 43.23 C 75.15 43.24 76.07 43.28 76.53 43.29 C 77.06 42.08 76.12 39.27 78.25 39.37 C 78.74 39.28 79.73 39.09 80.22 39.00 C 80.26 38.04 80.30 37.07 80.34 36.10 C 83.28 36.28 83.30 33.74 83.57 31.56 C 89.11 36.32 91.79 43.53 93.79 50.36 C 98.79 69.42 89.86 90.76 73.16 101.04 C 70.95 102.34 68.65 103.49 66.32 104.57 C 52.88 110.05 37.00 109.17 24.50 101.66 C 7.34 91.88 -2.57 70.24 2.57 50.97 C 6.19 34.25 20.02 20.32 36.61 16.29 Z" />
<path fill="#fdbb30" opacity="1.00" d=" M 73.41 35.63 C 74.15 35.67 75.63 35.75 76.37 35.79 C 76.74 36.95 76.95 38.14 76.99 39.38 C 76.09 39.34 74.30 39.27 73.40 39.23 C 73.40 38.33 73.41 36.53 73.41 35.63 Z" />
</g>
<g id="#000000ff">
<path fill="#000000" opacity="1.00" d=" M 95.65 4.23 C 96.84 4.20 98.03 4.17 99.22 4.14 C 99.28 5.02 99.39 6.80 99.44 7.68 L 99.09 7.69 C 98.26 7.70 96.58 7.72 95.74 7.73 C 95.70 8.92 95.66 10.12 95.63 11.31 C 94.84 11.31 93.27 11.30 92.49 11.30 C 91.26 11.32 90.04 11.37 88.82 11.40 C 88.86 12.22 88.94 13.86 88.98 14.67 C 89.05 15.69 89.19 17.71 89.26 18.72 C 89.88 18.46 91.12 17.93 91.73 17.66 C 91.91 16.99 92.27 15.65 92.45 14.98 C 92.45 14.86 92.46 14.62 92.47 14.50 C 93.74 14.63 95.02 14.76 96.29 14.90 C 96.31 15.99 96.33 17.08 96.36 18.17 L 96.36 18.18 C 95.23 18.28 94.18 18.59 93.19 19.11 C 92.88 19.75 92.26 21.02 91.95 21.66 C 90.77 21.68 89.59 21.70 88.41 21.74 C 88.55 20.59 88.68 19.45 88.81 18.31 C 87.69 18.39 86.58 18.49 85.46 18.58 C 85.62 19.41 85.92 21.06 86.08 21.89 L 86.95 21.00 C 87.69 21.54 88.43 22.05 89.18 22.56 C 89.15 24.52 89.14 26.47 89.13 28.43 C 86.86 28.29 85.66 29.34 85.88 31.65 C 85.10 31.62 84.34 31.59 83.57 31.56 C 83.30 33.74 83.28 36.28 80.34 36.10 C 80.30 37.07 80.26 38.04 80.22 39.00 C 79.73 39.09 78.74 39.28 78.25 39.37 C 76.12 39.27 77.06 42.08 76.53 43.29 C 76.07 43.28 75.15 43.24 74.69 43.23 C 74.38 43.21 73.75 43.18 73.44 43.16 C 73.43 44.49 73.42 45.82 73.41 47.15 C 72.69 47.16 71.26 47.19 70.54 47.20 C 70.57 47.96 70.63 49.47 70.66 50.22 C 66.70 49.54 68.49 53.81 66.85 55.81 C 62.71 62.22 59.12 69.01 56.42 76.16 C 55.70 77.70 55.26 79.68 53.58 80.49 C 50.62 81.52 46.43 80.85 45.31 77.49 C 41.82 68.40 37.24 59.60 30.53 52.43 C 29.00 50.59 26.33 47.93 28.65 45.62 C 30.58 44.46 32.74 45.80 34.49 46.67 C 40.81 50.13 45.06 56.09 49.77 61.34 C 53.02 53.80 57.08 46.64 61.30 39.61 C 64.81 40.18 63.49 35.65 66.40 35.32 L 66.38 34.98 C 66.36 34.32 66.33 33.00 66.32 32.34 C 67.19 32.37 68.94 32.42 69.82 32.45 C 69.76 30.71 69.71 28.96 69.66 27.22 C 72.08 25.79 74.03 28.14 73.65 30.49 C 74.68 30.50 75.71 30.51 76.74 30.53 C 76.78 29.60 76.81 28.67 76.84 27.74 C 75.84 27.06 71.46 26.39 73.99 24.65 L 75.68 23.75 C 75.91 23.22 76.37 22.15 76.60 21.62 C 78.49 21.71 80.38 21.64 82.27 21.63 C 82.27 20.75 82.27 18.99 82.27 18.12 C 81.06 18.29 79.85 18.44 78.63 18.56 L 78.63 18.17 C 78.63 17.43 78.62 15.93 78.62 15.18 C 79.73 15.24 81.43 14.41 81.93 15.89 C 82.28 17.86 83.58 18.62 85.56 18.52 C 85.59 16.12 85.60 13.72 85.60 11.32 C 86.64 11.30 87.68 11.28 88.73 11.26 C 88.90 10.05 89.08 8.85 89.26 7.65 C 91.39 7.65 93.52 7.65 95.65 7.64 C 95.65 6.79 95.65 5.08 95.65 4.23 M 82.23 21.75 C 82.29 22.89 82.37 24.02 82.45 25.16 C 83.47 25.15 84.49 25.15 85.51 25.14 C 85.57 23.93 85.63 22.71 85.70 21.50 C 84.83 21.56 83.09 21.69 82.23 21.75 M 73.41 35.63 C 73.41 36.53 73.40 38.33 73.40 39.23 C 74.30 39.27 76.09 39.34 76.99 39.38 C 76.95 38.14 76.74 36.95 76.37 35.79 C 75.63 35.75 74.15 35.67 73.41 35.63 Z" />
<path fill="#000000" opacity="1.00" d=" M 103.77 29.70 C 106.24 29.66 108.72 29.65 111.19 29.61 C 114.79 35.73 117.56 42.31 121.39 48.28 C 121.47 42.07 121.39 35.86 121.42 29.64 C 123.46 29.65 125.49 29.66 127.53 29.65 C 127.56 39.87 127.59 50.08 127.51 60.30 C 125.30 60.28 123.09 60.27 120.88 60.27 C 117.30 53.49 113.84 46.66 110.44 39.80 C 109.58 46.63 111.02 53.64 109.66 60.40 C 107.70 60.30 105.73 60.26 103.77 60.22 C 103.77 50.04 103.78 39.87 103.77 29.70 Z" />
<path fill="#000000" opacity="1.00" d=" M 171.44 37.69 C 171.81 35.57 172.21 33.47 172.60 31.36 C 174.45 31.38 176.29 31.40 178.14 31.44 C 178.14 33.54 178.13 35.64 178.13 37.74 C 179.63 37.70 181.13 37.67 182.63 37.62 C 182.68 39.23 182.70 40.84 182.70 42.45 C 181.18 42.42 179.65 42.38 178.13 42.35 C 178.25 46.55 177.89 50.76 178.33 54.94 C 179.30 56.30 181.36 55.22 182.78 55.45 C 183.06 56.99 183.31 58.54 183.57 60.09 C 179.62 60.83 173.65 61.64 171.86 56.92 C 170.75 52.18 171.62 47.18 171.37 42.34 C 168.35 42.29 164.72 42.07 162.95 45.07 C 160.24 49.64 161.90 55.24 161.45 60.27 C 159.21 60.27 156.98 60.27 154.74 60.27 C 154.76 52.77 154.76 45.26 154.74 37.75 C 155.66 37.71 157.51 37.65 158.44 37.61 C 159.12 39.08 159.73 40.59 160.34 42.09 C 161.56 41.06 162.43 39.66 163.82 38.82 C 166.04 37.25 168.89 37.80 171.44 37.69 Z" />
<path fill="#000000" opacity="1.00" d=" M 138.42 37.59 C 145.24 35.63 152.73 40.91 153.17 47.97 C 153.89 54.73 147.78 61.12 140.99 60.65 C 134.17 60.57 128.39 53.64 129.80 46.90 C 130.65 42.53 134.09 38.72 138.42 37.59 M 136.60 45.44 C 133.75 48.81 136.41 54.84 140.88 54.83 C 145.40 55.62 149.19 50.05 146.75 46.16 C 145.87 44.11 143.67 43.43 141.76 42.74 C 139.88 43.28 137.72 43.63 136.60 45.44 Z" />
<path fill="#000000" opacity="1.00" d=" M 191.53 37.78 C 198.34 35.39 206.62 40.55 206.87 47.89 C 207.88 54.95 201.10 61.49 194.11 60.60 C 187.20 60.11 181.86 52.72 183.77 45.99 C 184.85 42.24 187.84 39.07 191.53 37.78 M 194.62 42.99 C 190.19 43.27 187.55 49.04 190.41 52.48 C 192.79 56.03 198.81 55.50 200.60 51.64 C 203.10 47.70 198.98 42.36 194.62 42.99 Z" />
<path fill="#000000" opacity="1.00" d=" M 213.78 41.05 C 215.96 38.83 218.81 36.90 222.09 37.30 C 226.55 37.20 229.37 41.88 229.18 45.95 C 228.97 50.75 229.75 55.66 228.65 60.37 C 226.59 60.29 224.53 60.28 222.47 60.27 C 222.17 54.89 222.85 49.44 222.12 44.10 C 219.88 41.09 214.31 43.22 214.84 46.97 C 214.99 51.12 214.46 55.34 215.30 59.43 C 213.42 60.99 210.75 60.02 208.53 60.29 C 208.55 52.76 208.51 45.22 208.55 37.68 C 209.50 37.69 211.40 37.69 212.35 37.70 C 212.83 38.81 213.30 39.93 213.78 41.05 Z" />
</g>
<g id="#c0bfbfff">
<path fill="#c0bfbf" opacity="1.00" d=" M 66.20 18.28 C 70.35 18.33 74.49 18.29 78.63 18.17 L 78.63 18.56 C 79.85 18.44 81.06 18.29 82.27 18.12 C 82.27 18.99 82.27 20.75 82.27 21.63 C 80.38 21.64 78.49 21.71 76.60 21.62 C 75.41 21.24 74.36 21.43 73.45 22.20 C 71.13 20.72 68.67 19.48 66.20 18.28 Z" />
<path fill="#c0bfbf" opacity="1.00" d=" M 96.36 18.17 C 132.57 18.41 168.78 18.20 204.99 18.27 C 212.70 18.39 220.64 17.58 228.07 20.15 C 241.68 24.26 252.82 35.41 256.89 49.04 C 257.70 52.47 258.37 55.92 259.00 59.39 L 259.00 63.56 C 257.88 70.46 256.39 77.49 252.61 83.49 C 245.17 96.22 230.85 104.60 216.06 104.59 C 166.15 104.60 116.23 104.64 66.32 104.57 C 68.65 103.49 70.95 102.34 73.16 101.04 C 75.44 101.18 77.72 101.31 80.01 101.33 C 125.02 101.28 170.03 101.33 215.03 101.30 C 225.84 101.29 236.58 96.80 244.05 88.97 C 252.99 79.83 257.17 66.19 254.45 53.64 C 251.13 35.75 234.21 21.70 216.01 21.68 C 174.66 21.63 133.31 21.67 91.95 21.66 C 92.26 21.02 92.88 19.75 93.19 19.11 C 94.18 18.59 95.23 18.28 96.36 18.18 L 96.36 18.17 Z" />
</g>
<g id="#ffffffff">
<path fill="#ffffff" opacity="1.00" d=" M 85.46 18.58 C 86.58 18.49 87.69 18.39 88.81 18.31 C 88.68 19.45 88.55 20.59 88.41 21.74 C 89.59 21.70 90.77 21.68 91.95 21.66 C 133.31 21.67 174.66 21.63 216.01 21.68 C 234.21 21.70 251.13 35.75 254.45 53.64 C 257.17 66.19 252.99 79.83 244.05 88.97 C 236.58 96.80 225.84 101.29 215.03 101.30 C 170.03 101.33 125.02 101.28 80.01 101.33 C 77.72 101.31 75.44 101.18 73.16 101.04 C 89.86 90.76 98.79 69.42 93.79 50.36 C 91.79 43.53 89.11 36.32 83.57 31.56 C 84.34 31.59 85.10 31.62 85.88 31.65 C 85.66 29.34 86.86 28.29 89.13 28.43 C 89.14 26.47 89.15 24.52 89.18 22.56 C 88.43 22.05 87.69 21.54 86.95 21.00 L 86.08 21.89 C 85.92 21.06 85.62 19.41 85.46 18.58 M 103.77 29.70 C 103.78 39.87 103.77 50.04 103.77 60.22 C 105.73 60.26 107.70 60.30 109.66 60.40 C 111.02 53.64 109.58 46.63 110.44 39.80 C 113.84 46.66 117.30 53.49 120.88 60.27 C 123.09 60.27 125.30 60.28 127.51 60.30 C 127.59 50.08 127.56 39.87 127.53 29.65 C 125.49 29.66 123.46 29.65 121.42 29.64 C 121.39 35.86 121.47 42.07 121.39 48.28 C 117.56 42.31 114.79 35.73 111.19 29.61 C 108.72 29.65 106.24 29.66 103.77 29.70 M 171.44 37.69 C 168.89 37.80 166.04 37.25 163.82 38.82 C 162.43 39.66 161.56 41.06 160.34 42.09 C 159.73 40.59 159.12 39.08 158.44 37.61 C 157.51 37.65 155.66 37.71 154.74 37.75 C 154.76 45.26 154.76 52.77 154.74 60.27 C 156.98 60.27 159.21 60.27 161.45 60.27 C 161.90 55.24 160.24 49.64 162.95 45.07 C 164.72 42.07 168.35 42.29 171.37 42.34 C 171.62 47.18 170.75 52.18 171.86 56.92 C 173.65 61.64 179.62 60.83 183.57 60.09 C 183.31 58.54 183.06 56.99 182.78 55.45 C 181.36 55.22 179.30 56.30 178.33 54.94 C 177.89 50.76 178.25 46.55 178.13 42.35 C 179.65 42.38 181.18 42.42 182.70 42.45 C 182.70 40.84 182.68 39.23 182.63 37.62 C 181.13 37.67 179.63 37.70 178.13 37.74 C 178.13 35.64 178.14 33.54 178.14 31.44 C 176.29 31.40 174.45 31.38 172.60 31.36 C 172.21 33.47 171.81 35.57 171.44 37.69 M 138.42 37.59 C 134.09 38.72 130.65 42.53 129.80 46.90 C 128.39 53.64 134.17 60.57 140.99 60.65 C 147.78 61.12 153.89 54.73 153.17 47.97 C 152.73 40.91 145.24 35.63 138.42 37.59 M 191.53 37.78 C 187.84 39.07 184.85 42.24 183.77 45.99 C 181.86 52.72 187.20 60.11 194.11 60.60 C 201.10 61.49 207.88 54.95 206.87 47.89 C 206.62 40.55 198.34 35.39 191.53 37.78 M 213.78 41.05 C 213.30 39.93 212.83 38.81 212.35 37.70 C 211.40 37.69 209.50 37.69 208.55 37.68 C 208.51 45.22 208.55 52.76 208.53 60.29 C 210.75 60.02 213.42 60.99 215.30 59.43 C 214.46 55.34 214.99 51.12 214.84 46.97 C 214.31 43.22 219.88 41.09 222.12 44.10 C 222.85 49.44 222.17 54.89 222.47 60.27 C 224.53 60.28 226.59 60.29 228.65 60.37 C 229.75 55.66 228.97 50.75 229.18 45.95 C 229.37 41.88 226.55 37.20 222.09 37.30 C 218.81 36.90 215.96 38.83 213.78 41.05 M 168.39 69.67 C 168.19 74.45 168.60 79.25 168.19 84.02 C 167.88 87.66 161.49 87.57 161.48 83.90 C 161.12 79.14 161.45 74.36 161.31 69.60 C 160.18 69.74 157.77 69.35 157.85 71.11 C 157.94 75.67 157.44 80.32 158.32 84.83 C 159.40 91.24 170.49 90.99 171.37 84.54 C 171.87 79.60 171.52 74.62 171.55 69.66 C 170.49 69.66 169.44 69.67 168.39 69.67 M 178.35 69.66 C 178.22 76.17 178.38 82.68 178.25 89.18 C 179.34 89.06 181.75 89.87 181.52 87.97 C 181.64 85.52 181.55 83.06 181.60 80.61 C 187.82 79.95 185.30 90.65 191.83 89.43 C 190.90 86.49 189.27 83.83 188.22 80.94 C 190.77 78.86 192.88 75.46 190.80 72.28 C 187.89 68.43 182.47 70.02 178.35 69.66 M 215.37 69.63 C 215.36 76.20 215.05 82.79 215.53 89.35 C 219.56 89.20 224.48 89.76 227.44 86.40 C 230.14 82.67 230.30 77.12 227.97 73.18 C 225.20 69.05 219.67 69.72 215.37 69.63 M 104.79 70.77 C 102.71 72.25 102.84 75.30 103.61 77.45 C 105.62 80.59 110.13 80.18 112.51 82.87 C 112.88 84.48 112.34 85.65 110.90 86.38 C 108.21 87.21 105.70 85.63 103.10 85.22 C 100.70 88.03 104.97 88.94 107.00 89.26 C 110.61 90.17 116.02 88.48 115.73 83.99 C 116.26 79.17 110.69 78.07 107.33 76.58 C 105.58 76.04 106.38 73.87 106.48 72.57 C 108.92 72.23 111.35 72.57 113.78 72.73 C 114.08 72.21 114.67 71.16 114.96 70.64 C 111.76 69.52 107.72 68.50 104.79 70.77 M 121.61 69.68 C 121.58 76.20 121.55 82.73 121.63 89.25 C 125.53 89.19 129.44 89.38 133.34 89.17 C 133.46 88.50 133.70 87.15 133.82 86.48 C 130.91 86.44 127.99 86.46 125.09 86.54 C 124.82 84.53 124.75 82.49 124.69 80.46 C 126.91 79.96 130.50 81.55 131.74 79.05 C 130.63 76.42 126.94 78.10 124.74 77.59 C 124.75 75.89 124.76 74.19 124.77 72.50 C 127.43 72.44 130.10 72.55 132.76 72.40 C 132.89 71.73 133.14 70.38 133.27 69.71 C 129.38 69.70 125.50 69.70 121.61 69.68 M 140.00 73.00 C 137.40 77.62 137.55 84.66 142.02 88.11 C 145.33 90.47 149.71 89.44 152.68 87.02 C 152.24 86.41 151.38 85.19 150.94 84.58 C 148.76 86.37 145.04 87.65 143.10 84.81 C 141.32 81.40 141.33 76.80 143.53 73.58 C 145.53 71.12 148.77 72.96 151.11 73.75 C 151.34 73.10 151.79 71.80 152.01 71.15 C 148.29 68.58 142.41 68.74 140.00 73.00 M 197.57 69.71 C 197.55 76.22 197.55 82.72 197.57 89.23 C 201.49 89.19 205.41 89.39 209.32 89.17 C 209.44 88.49 209.67 87.13 209.79 86.44 C 206.89 86.44 204.00 86.46 201.10 86.55 C 200.76 84.48 200.79 82.39 201.05 80.32 C 203.21 80.35 205.38 80.37 207.54 80.39 C 208.47 76.10 203.41 78.06 200.95 77.70 C 200.85 75.94 200.89 74.17 201.02 72.40 C 203.83 72.45 206.64 72.46 209.45 72.40 C 209.34 71.75 209.12 70.45 209.01 69.80 C 205.20 69.53 201.38 69.76 197.57 69.71 Z" />
<path fill="#ffffff" opacity="1.00" d=" M 73.45 22.20 C 74.36 21.43 75.41 21.24 76.60 21.62 C 76.37 22.15 75.91 23.22 75.68 23.75 C 75.12 23.36 74.01 22.59 73.45 22.20 Z" />
<path fill="#ffffff" opacity="1.00" d=" M 82.23 21.75 C 83.09 21.69 84.83 21.56 85.70 21.50 C 85.63 22.71 85.57 23.93 85.51 25.14 C 84.49 25.15 83.47 25.15 82.45 25.16 C 82.37 24.02 82.29 22.89 82.23 21.75 Z" />
<path fill="#ffffff" opacity="1.00" d=" M 42.06 30.20 C 50.41 28.42 59.19 30.57 66.38 34.98 L 66.40 35.32 C 63.49 35.65 64.81 40.18 61.30 39.61 C 57.08 46.64 53.02 53.80 49.77 61.34 C 45.06 56.09 40.81 50.13 34.49 46.67 C 32.74 45.80 30.58 44.46 28.65 45.62 C 26.33 47.93 29.00 50.59 30.53 52.43 C 37.24 59.60 41.82 68.40 45.31 77.49 C 46.43 80.85 50.62 81.52 53.58 80.49 C 55.26 79.68 55.70 77.70 56.42 76.16 C 59.12 69.01 62.71 62.22 66.85 55.81 C 68.49 53.81 66.70 49.54 70.66 50.22 C 70.63 49.47 70.57 47.96 70.54 47.20 C 71.26 47.19 72.69 47.16 73.41 47.15 C 73.42 45.82 73.43 44.49 73.44 43.16 C 73.75 43.18 74.38 43.21 74.69 43.23 C 78.16 48.82 80.41 55.31 80.27 61.94 C 80.04 69.84 76.97 77.71 71.43 83.40 C 64.05 91.14 52.63 94.89 42.12 92.71 C 30.38 90.58 20.38 81.28 17.27 69.78 C 15.01 60.76 16.45 50.61 22.07 43.06 C 26.80 36.46 34.06 31.71 42.06 30.20 Z" />
<path fill="#ffffff" opacity="1.00" d=" M 136.60 45.44 C 137.72 43.63 139.88 43.28 141.76 42.74 C 143.67 43.43 145.87 44.11 146.75 46.16 C 149.19 50.05 145.40 55.62 140.88 54.83 C 136.41 54.84 133.75 48.81 136.60 45.44 Z" />
<path fill="#ffffff" opacity="1.00" d=" M 194.62 42.99 C 198.98 42.36 203.10 47.70 200.60 51.64 C 198.81 55.50 192.79 56.03 190.41 52.48 C 187.55 49.04 190.19 43.27 194.62 42.99 Z" />
<path fill="#ffffff" opacity="1.00" d=" M 181.49 72.48 C 183.95 72.55 187.67 71.65 188.38 74.94 C 188.76 78.80 184.14 78.52 181.56 78.46 C 181.54 76.46 181.52 74.47 181.49 72.48 Z" />
<path fill="#ffffff" opacity="1.00" d=" M 218.53 72.30 C 220.88 72.51 223.98 72.30 225.22 74.81 C 226.27 77.56 226.14 80.75 225.39 83.57 C 224.40 86.39 221.01 86.48 218.53 86.58 C 218.52 81.82 218.51 77.06 218.53 72.30 Z" />
</g>
<g id="#949493fb">
<path fill="#949493" opacity="1.00" d=" M 243.65 18.31 C 246.13 18.27 248.62 18.51 251.10 18.24 C 251.36 19.04 251.87 20.62 252.13 21.42 C 252.50 20.62 253.23 19.03 253.59 18.24 C 254.02 18.27 254.89 18.33 255.32 18.36 C 255.17 20.65 255.89 23.17 254.68 25.25 C 254.45 24.04 254.16 22.85 253.81 21.67 C 253.53 22.52 252.98 24.23 252.70 25.08 C 252.19 24.24 251.19 22.57 250.68 21.73 C 250.38 22.60 249.78 24.34 249.48 25.21 C 249.37 23.11 249.43 21.00 249.45 18.89 C 245.89 18.94 247.22 22.84 246.68 25.17 C 244.80 24.12 245.95 21.64 245.61 19.93 C 245.12 19.53 244.14 18.72 243.65 18.31 Z" />
<path fill="#949493" opacity="1.00" d=" M 168.39 69.67 C 169.44 69.67 170.49 69.66 171.55 69.66 C 171.52 74.62 171.87 79.60 171.37 84.54 C 170.49 90.99 159.40 91.24 158.32 84.83 C 157.44 80.32 157.94 75.67 157.85 71.11 C 157.77 69.35 160.18 69.74 161.31 69.60 C 161.45 74.36 161.12 79.14 161.48 83.90 C 161.49 87.57 167.88 87.66 168.19 84.02 C 168.60 79.25 168.19 74.45 168.39 69.67 Z" />
<path fill="#949493" opacity="1.00" d=" M 178.35 69.66 C 182.47 70.02 187.89 68.43 190.80 72.28 C 192.88 75.46 190.77 78.86 188.22 80.94 C 189.27 83.83 190.90 86.49 191.83 89.43 C 185.30 90.65 187.82 79.95 181.60 80.61 C 181.55 83.06 181.64 85.52 181.52 87.97 C 181.75 89.87 179.34 89.06 178.25 89.18 C 178.38 82.68 178.22 76.17 178.35 69.66 M 181.49 72.48 C 181.52 74.47 181.54 76.46 181.56 78.46 C 184.14 78.52 188.76 78.80 188.38 74.94 C 187.67 71.65 183.95 72.55 181.49 72.48 Z" />
<path fill="#949493" opacity="1.00" d=" M 215.37 69.63 C 219.67 69.72 225.20 69.05 227.97 73.18 C 230.30 77.12 230.14 82.67 227.44 86.40 C 224.48 89.76 219.56 89.20 215.53 89.35 C 215.05 82.79 215.36 76.20 215.37 69.63 M 218.53 72.30 C 218.51 77.06 218.52 81.82 218.53 86.58 C 221.01 86.48 224.40 86.39 225.39 83.57 C 226.14 80.75 226.27 77.56 225.22 74.81 C 223.98 72.30 220.88 72.51 218.53 72.30 Z" />
<path fill="#949493" opacity="1.00" d=" M 104.79 70.77 C 107.72 68.50 111.76 69.52 114.96 70.64 C 114.67 71.16 114.08 72.21 113.78 72.73 C 111.35 72.57 108.92 72.23 106.48 72.57 C 106.38 73.87 105.58 76.04 107.33 76.58 C 110.69 78.07 116.26 79.17 115.73 83.99 C 116.02 88.48 110.61 90.17 107.00 89.26 C 104.97 88.94 100.70 88.03 103.10 85.22 C 105.70 85.63 108.21 87.21 110.90 86.38 C 112.34 85.65 112.88 84.48 112.51 82.87 C 110.13 80.18 105.62 80.59 103.61 77.45 C 102.84 75.30 102.71 72.25 104.79 70.77 Z" />
<path fill="#949493" opacity="1.00" d=" M 121.61 69.68 C 125.50 69.70 129.38 69.70 133.27 69.71 C 133.14 70.38 132.89 71.73 132.76 72.40 C 130.10 72.55 127.43 72.44 124.77 72.50 C 124.76 74.19 124.75 75.89 124.74 77.59 C 126.94 78.10 130.63 76.42 131.74 79.05 C 130.50 81.55 126.91 79.96 124.69 80.46 C 124.75 82.49 124.82 84.53 125.09 86.54 C 127.99 86.46 130.91 86.44 133.82 86.48 C 133.70 87.15 133.46 88.50 133.34 89.17 C 129.44 89.38 125.53 89.19 121.63 89.25 C 121.55 82.73 121.58 76.20 121.61 69.68 Z" />
<path fill="#949493" opacity="1.00" d=" M 140.00 73.00 C 142.41 68.74 148.29 68.58 152.01 71.15 C 151.79 71.80 151.34 73.10 151.11 73.75 C 148.77 72.96 145.53 71.12 143.53 73.58 C 141.33 76.80 141.32 81.40 143.10 84.81 C 145.04 87.65 148.76 86.37 150.94 84.58 C 151.38 85.19 152.24 86.41 152.68 87.02 C 149.71 89.44 145.33 90.47 142.02 88.11 C 137.55 84.66 137.40 77.62 140.00 73.00 Z" />
<path fill="#949493" opacity="1.00" d=" M 197.57 69.71 C 201.38 69.76 205.20 69.53 209.01 69.80 C 209.12 70.45 209.34 71.75 209.45 72.40 C 206.64 72.46 203.83 72.45 201.02 72.40 C 200.89 74.17 200.85 75.94 200.95 77.70 C 203.41 78.06 208.47 76.10 207.54 80.39 C 205.38 80.37 203.21 80.35 201.05 80.32 C 200.79 82.39 200.76 84.48 201.10 86.55 C 204.00 86.46 206.89 86.44 209.79 86.44 C 209.67 87.13 209.44 88.49 209.32 89.17 C 205.41 89.39 201.49 89.19 197.57 89.23 C 197.55 82.72 197.55 76.22 197.57 69.71 Z" />
</g>
</svg>
